<svg width="301" height="155" viewBox="0 0 301 155" fill="none" xmlns="http://www.w3.org/2000/svg">
<path d="M12.7076 153.608L0 153.065L0.193512 148.283C0.231018 147.357 0.41095 146.596 0.733368 146.001C1.05167 145.406 1.46927 144.968 1.98615 144.688C2.4989 144.407 3.06964 144.28 3.69839 144.307C4.22787 144.33 4.67059 144.449 5.02652 144.664C5.37833 144.879 5.65704 145.16 5.8627 145.505C6.06439 145.845 6.20676 146.218 6.28989 146.621L6.414 146.627C6.45224 146.194 6.60583 145.777 6.87485 145.376C7.13989 144.97 7.50751 144.64 7.97769 144.388C8.44785 144.136 9.01181 144.023 9.66953 144.052C10.319 144.079 10.8958 144.261 11.4002 144.598C11.9006 144.93 12.2886 145.428 12.5642 146.091C12.8358 146.754 12.9511 147.592 12.9101 148.603L12.7076 153.608ZM11.143 151.568L11.2581 148.724C11.2963 147.781 11.1458 147.097 10.8065 146.674C10.4673 146.251 10.0309 146.028 9.49725 146.005C9.09598 145.988 8.7236 146.076 8.38013 146.27C8.03662 146.464 7.75778 146.75 7.54355 147.128C7.32953 147.503 7.21185 147.953 7.19052 148.48L7.0726 151.394L11.143 151.568ZM5.57724 151.33L5.68408 148.69C5.70197 148.248 5.63528 147.847 5.4841 147.488C5.3331 147.123 5.11285 146.831 4.82346 146.61C4.53009 146.384 4.17865 146.263 3.7691 146.246C3.24377 146.223 2.79559 146.393 2.42453 146.757C2.0535 147.12 1.85211 147.692 1.82047 148.474L1.71161 151.165L5.57724 151.33Z" fill="white"/>
<path d="M8.37561 129.833C9.7218 130.016 10.8466 130.427 11.7498 131.065C12.649 131.702 13.3024 132.497 13.7099 133.45C14.1139 134.397 14.2438 135.43 14.0996 136.547C13.9549 137.669 13.5671 138.636 12.9362 139.446C12.3018 140.253 11.4677 140.843 10.4337 141.217C9.39984 141.591 8.21185 141.687 6.86978 141.504C5.52359 141.32 4.40088 140.91 3.50168 140.273C2.59836 139.635 1.9447 138.842 1.54074 137.894C1.13324 136.942 1.00186 135.905 1.14658 134.783C1.29077 133.665 1.68008 132.703 2.31451 131.897C2.94537 131.086 3.77774 130.494 4.81165 130.12C5.84146 129.745 7.02942 129.649 8.37561 129.833ZM8.12589 131.768C7.09982 131.629 6.21384 131.682 5.46793 131.928C4.71848 132.169 4.12506 132.56 3.68768 133.101C3.2468 133.638 2.97845 134.277 2.88269 135.019C2.78638 135.766 2.88303 136.457 3.17267 137.093C3.45822 137.728 3.93192 138.265 4.59378 138.703C5.25208 139.136 6.09427 139.422 7.12033 139.562C8.14639 139.702 9.03415 139.651 9.7836 139.41C10.5295 139.164 11.1229 138.772 11.5638 138.236C12.0006 137.699 12.2672 137.057 12.3635 136.311C12.4593 135.569 12.3644 134.88 12.0789 134.244C11.7897 133.604 11.316 133.068 10.6577 132.635C9.99591 132.197 9.15195 131.908 8.12589 131.768Z" fill="white"/>
<path d="M14.9451 128.989L13.3235 128.604L13.3954 128.228C13.497 127.719 13.4191 127.282 13.1617 126.915C12.9052 126.544 12.4328 126.207 11.7447 125.904C11.0574 125.597 10.1199 125.278 8.9321 124.948L3.16025 123.348L4.97141 115.296L17.3633 118.239L16.9367 120.136L6.1301 117.569L5.15253 121.915L9.83945 123.238C11.1544 123.607 12.239 124.008 13.0932 124.443C13.9433 124.876 14.5391 125.411 14.8805 126.046C15.2229 126.678 15.2855 127.476 15.0682 128.442L14.9451 128.989Z" fill="white"/>
<path d="M8.46796 103.651L10.0406 104.17L8.20145 110.051L18.7374 113.53L18.1503 115.407L6.04163 111.409L8.46796 103.651Z" fill="white"/>
<path d="M19.7899 92.2318C21.0416 92.773 22.0214 93.4735 22.7293 94.3334C23.4335 95.1917 23.86 96.1353 24.0091 97.1644C24.156 98.1879 24.0166 99.2192 23.5911 100.258C23.164 101.301 22.5423 102.129 21.7259 102.74C20.9072 103.346 19.9513 103.69 18.858 103.771C17.7647 103.852 16.5941 103.623 15.3463 103.084C14.0946 102.542 13.1167 101.843 12.4126 100.985C11.7047 100.125 11.2773 99.1829 11.1304 98.1594C10.9814 97.1304 11.1204 96.0943 11.5475 95.0513C11.973 94.0122 12.595 93.1896 13.4136 92.5835C14.2301 91.9719 15.1849 91.6255 16.2782 91.5443C17.3677 91.4615 18.5382 91.6907 19.7899 92.2318ZM19.0529 94.0316C18.0989 93.6192 17.2306 93.4307 16.448 93.4662C15.6631 93.4961 14.9904 93.7129 14.4298 94.1167C13.867 94.5149 13.4443 95.0591 13.1617 95.7492C12.8775 96.4432 12.7936 97.1362 12.91 97.8281C13.0227 98.5183 13.3421 99.1641 13.8684 99.7655C14.3925 100.361 15.1317 100.865 16.0857 101.278C17.0397 101.69 17.9091 101.882 18.6939 101.852C19.4766 101.816 20.1493 101.599 20.7121 101.201C21.2711 100.801 21.6927 100.254 21.9769 99.5604C22.2595 98.8702 22.3445 98.1801 22.2319 97.4898C22.117 96.794 21.7975 96.1482 21.2734 95.5524C20.7471 94.951 20.007 94.4441 19.0529 94.0316Z" fill="white"/>
<path d="M19.2917 79.0286L20.7527 79.8209L17.9468 85.2838L27.7339 90.5914L26.8383 92.3352L15.5901 86.2353L19.2917 79.0286Z" fill="white"/>
<path d="M31.797 82.8511L21.0598 75.8461L23.4898 71.9136C24.0202 71.0552 24.6117 70.4433 25.2642 70.0779C25.9167 69.7124 26.5934 69.5618 27.2942 69.626C27.9916 69.6879 28.6688 69.9332 29.3259 70.3619C29.9865 70.7929 30.493 71.3224 30.8455 71.9504C31.1966 72.5726 31.3507 73.2677 31.3076 74.0358C31.2633 74.798 30.9771 75.6065 30.4489 76.4613L28.7778 79.1656L27.4042 78.2694L28.9821 75.716C29.3172 75.1737 29.4982 74.6744 29.525 74.2183C29.5484 73.7598 29.4499 73.3478 29.2294 72.9823C29.009 72.6168 28.6961 72.3018 28.2906 72.0373C27.8852 71.7728 27.4764 71.6169 27.0642 71.5697C26.652 71.5225 26.2513 71.6113 25.8622 71.8362C25.4754 72.0575 25.1111 72.4447 24.7693 72.9978L23.4778 75.0879L32.8256 81.1865L31.797 82.8511Z" fill="white"/>
<path d="M38.6989 72.0185L37.4603 73.6801L30.1459 62.0001L31.494 60.1916L44.3743 64.4042L43.1357 66.0658L32.6862 62.4962L32.6257 62.5772L38.6989 72.0185ZM34.9524 68.628L38.9702 63.2378L40.252 64.2466L36.2343 69.6368L34.9524 68.628Z" fill="white"/>
<path d="M47.3217 65.6145L43.8743 62.3302L44.4443 61.6985C44.4625 61.3155 44.3936 60.8756 44.2376 60.379C44.0816 59.8823 43.7865 59.3053 43.3521 58.6479C42.9178 57.9904 42.2905 57.2246 41.4703 56.3503L37.7337 52.3729L43.0665 46.4628L51.2 54.2114L52.1796 53.1258L55.6133 56.3971L54.3635 57.7822L52.1229 55.6476L46.3173 62.0818L48.5715 64.2294L47.3217 65.6145ZM45.9812 59.9952L49.9502 55.5965L43.028 49.002L40.1273 52.2167L42.7201 54.9652C43.3423 55.6334 43.8738 56.2645 44.3146 56.8585C44.7582 57.4493 45.1172 58.0088 45.3915 58.537C45.6656 59.0592 45.8622 59.5452 45.9812 59.9952Z" fill="white"/>
<path d="M57.5428 38.5384L56.0925 39.8586C55.7622 39.591 55.4168 39.4053 55.0563 39.3015C54.6958 39.1978 54.3328 39.1616 53.9672 39.1932C53.6017 39.2247 53.2455 39.3216 52.8987 39.4839C52.555 39.6433 52.2312 39.8613 51.9276 40.1378C51.379 40.6371 51.01 41.2259 50.8205 41.9043C50.6341 42.5798 50.6515 43.3056 50.8727 44.0818C51.097 44.8552 51.5497 45.6367 52.2305 46.4264C52.9169 47.2225 53.6201 47.7815 54.3403 48.1035C55.0635 48.4227 55.7628 48.5249 56.4383 48.4102C57.1137 48.2954 57.7226 47.9912 58.2649 47.4976C58.5655 47.2239 58.815 46.923 59.0132 46.5948C59.2117 46.2605 59.3497 45.9105 59.4269 45.5446C59.5042 45.1787 59.5158 44.8073 59.4617 44.4302C59.408 44.0472 59.2761 43.6728 59.0659 43.3072L60.5203 41.9917C60.8574 42.543 61.0887 43.1225 61.2143 43.73C61.3402 44.3315 61.3559 44.9367 61.2614 45.5456C61.1673 46.1485 60.9672 46.7313 60.6614 47.2939C60.3555 47.8565 59.9407 48.3762 59.417 48.8529C58.5927 49.6033 57.6853 50.0713 56.6947 50.2569C55.7015 50.4393 54.695 50.324 53.6752 49.911C52.6585 49.4953 51.7012 48.7667 50.8035 47.7255C49.903 46.6811 49.316 45.6155 49.0427 44.5286C48.7667 43.4386 48.778 42.3996 49.0766 41.4117C49.3725 40.4205 49.9311 39.5511 50.7523 38.8035C51.2574 38.3437 51.793 37.9897 52.3589 37.7416C52.9253 37.4875 53.5071 37.3443 54.1044 37.3121C54.6989 37.2768 55.2879 37.3601 55.8714 37.5621C56.4521 37.7609 57.0093 38.0863 57.5428 38.5384Z" fill="white"/>
<path d="M70.8784 39.2497L64.0495 37.1632L62.9625 37.9923L66.3607 42.6959L64.8199 43.8712L57.2387 33.378L58.7795 32.2026L61.9816 36.6346L62.4852 36.2504L63.1426 28.8744L65.0225 27.4404L64.3332 35.254L72.7583 37.8158L70.8784 39.2497Z" fill="white"/>
<path d="M75.0333 36.3132L73.2976 37.4086L70.5413 23.8113L72.4305 22.6191L82.9869 31.2937L81.2512 32.3891L72.7399 25.2095L72.6552 25.263L75.0333 36.3132ZM72.7177 31.7687L78.3482 28.2153L79.1933 29.629L73.5628 33.1824L72.7177 31.7687Z" fill="white"/>
<path d="M92.9893 26.0923L91.2671 26.9763L86.3185 16.7981L84.1629 17.9046C83.6 18.1936 83.1851 18.5159 82.9184 18.8716C82.6498 19.2235 82.5127 19.603 82.507 20.0101C82.5013 20.4172 82.6058 20.8415 82.8204 21.283C83.0332 21.7206 83.2969 22.0537 83.6116 22.2821C83.9263 22.5105 84.2975 22.6172 84.7252 22.6021C85.1529 22.587 85.6464 22.4359 86.2056 22.1489L89.1223 20.6517L89.8606 22.1701L86.7828 23.75C85.905 24.2006 85.1004 24.4258 84.3691 24.4255C83.6414 24.4234 82.9999 24.2272 82.4446 23.837C81.8911 23.4411 81.4405 22.8854 81.0926 22.1699C80.7429 21.4506 80.5793 20.7428 80.6017 20.0465C80.6223 19.3464 80.8475 18.6911 81.2773 18.0805C81.7107 17.4681 82.3663 16.9366 83.2441 16.486L87.3053 14.4013L92.9893 26.0923ZM84.8082 23.7008L86.7081 22.7255L86.5115 29.4175L84.5615 30.4185L84.8082 23.7008Z" fill="white"/>
<path d="M96.041 10.6279L100.605 14.3573L100.699 14.3223L101.851 8.44878L103.94 7.6655L102.398 15.1996L108.324 19.9332L106.224 20.7209L101.672 17.0618L101.578 17.0968L100.39 22.9088L98.29 23.6964L99.9191 16.1295L93.9525 11.4112L96.041 10.6279Z" fill="white"/>
<path d="M119.015 10.1768C119.363 11.5257 119.421 12.7507 119.191 13.8519C118.96 14.949 118.493 15.8725 117.791 16.6223C117.092 17.367 116.213 17.8835 115.152 18.1721C114.087 18.4617 113.07 18.4613 112.1 18.1707C111.133 17.8749 110.284 17.307 109.554 16.4672C108.824 15.6273 108.285 14.535 107.939 13.1902C107.591 11.8413 107.533 10.6184 107.764 9.52129C107.994 8.42009 108.459 7.49718 109.158 6.75253C109.86 6.00269 110.743 5.48294 111.808 5.19331C112.868 4.90477 113.882 4.90837 114.849 5.20418C115.819 5.49477 116.669 6.06001 117.4 6.89987C118.129 7.73564 118.667 8.82794 119.015 10.1768ZM117.178 10.6766C116.913 9.64848 116.528 8.82693 116.023 8.2119C115.52 7.59167 114.942 7.17683 114.288 6.96738C113.638 6.75273 112.96 6.74121 112.256 6.93285C111.548 7.12558 110.962 7.48062 110.5 7.99799C110.037 8.51123 109.735 9.1656 109.593 9.96114C109.454 10.7515 109.517 11.6607 109.782 12.6888C110.047 13.7169 110.43 14.5411 110.933 15.1613C111.438 15.7763 112.016 16.1912 112.667 16.4058C113.316 16.6164 113.995 16.6253 114.704 16.4325C115.408 16.2409 115.992 15.8885 116.455 15.3752C116.921 14.8568 117.223 14.2024 117.362 13.4121C117.504 12.6165 117.443 11.7047 117.178 10.6766Z" fill="white"/>
<path d="M123.217 15.9776L121.098 3.09157L125.568 2.31548C126.544 2.14609 127.382 2.1882 128.083 2.44186C128.784 2.69553 129.346 3.11143 129.768 3.68954C130.19 4.26346 130.466 4.9447 130.596 5.73329C130.726 6.52609 130.682 7.2672 130.464 7.95657C130.249 8.64107 129.849 9.22385 129.265 9.70496C128.684 10.1812 127.908 10.5036 126.936 10.6723L123.862 11.206L123.591 9.55751L126.494 9.05359C127.11 8.94656 127.592 8.75067 127.94 8.46593C128.287 8.17699 128.519 7.82607 128.636 7.41316C128.753 7.00026 128.771 6.55052 128.691 6.06393C128.611 5.57736 128.45 5.1609 128.209 4.81456C127.967 4.46823 127.635 4.22177 127.212 4.07518C126.793 3.92787 126.269 3.90878 125.64 4.01793L123.264 4.43044L125.109 15.6491L123.217 15.9776Z" fill="white"/>
<path d="M134.619 14.1319L133.517 1.11235L141.461 0.402451L141.604 2.09348L135.572 2.63251L135.908 6.5994L141.525 6.09738L141.668 7.78206L136.05 8.28407L136.388 12.27L142.494 11.7243L142.637 13.4153L134.619 14.1319Z" fill="white"/>
<path d="M156.319 6.72414C156.316 8.11949 156.066 9.31866 155.567 10.3217C155.068 11.3204 154.386 12.0891 153.52 12.6277C152.657 13.162 151.678 13.4281 150.581 13.426C149.479 13.4239 148.497 13.1539 147.632 12.6162C146.772 12.0743 146.095 11.3009 145.6 10.2959C145.105 9.29097 144.858 8.09296 144.861 6.70186C144.864 5.3065 145.114 4.10945 145.613 3.1107C146.112 2.1077 146.792 1.33904 147.654 0.804688C148.52 0.266098 149.504 -0.00213623 150.605 0C151.703 0.00213623 152.681 0.274185 153.541 0.816132C154.406 1.35384 155.085 2.12515 155.58 3.13008C156.075 4.13077 156.321 5.32878 156.319 6.72414ZM154.419 6.72044C154.421 5.65691 154.254 4.76109 153.92 4.03297C153.591 3.30063 153.136 2.74672 152.557 2.37123C151.982 1.99149 151.331 1.80092 150.602 1.7995C149.869 1.79808 149.215 1.9861 148.639 2.3636C148.062 2.73685 147.606 3.289 147.269 4.02007C146.937 4.74687 146.77 5.64203 146.768 6.70557C146.766 7.76909 146.93 8.66704 147.259 9.3994C147.593 10.1275 148.048 10.6814 148.623 11.0611C149.197 11.4366 149.851 11.6251 150.584 11.6265C151.313 11.6279 151.965 11.442 152.541 11.0688C153.122 10.6913 153.578 10.1391 153.911 9.41231C154.247 8.68126 154.417 7.78397 154.419 6.72044Z" fill="white"/>
<path d="M167.982 1.17331L167.833 2.86375L161.846 2.30544L160.846 13.6302L158.935 13.452L160.084 0.436768L167.982 1.17331Z" fill="white"/>
<path d="M169.341 14.504L171.483 1.62206L175.952 2.40674C176.928 2.578 177.705 2.90228 178.285 3.37962C178.865 3.85695 179.262 4.44016 179.475 5.12926C179.689 5.81415 179.73 6.55077 179.599 7.33911C179.467 8.13165 179.187 8.81621 178.759 9.39279C178.337 9.9659 177.772 10.3803 177.066 10.6361C176.364 10.8884 175.528 10.9293 174.557 10.7588L171.484 10.2192L171.758 8.5712L174.659 9.0807C175.276 9.1889 175.794 9.16768 176.214 9.01698C176.634 8.86209 176.966 8.6096 177.209 8.25954C177.452 7.90948 177.614 7.49124 177.695 7.00481C177.776 6.51839 177.758 6.07071 177.641 5.66179C177.524 5.25285 177.29 4.90741 176.938 4.62547C176.59 4.34425 176.101 4.14847 175.473 4.0381L173.098 3.62105L171.233 14.8361L169.341 14.504Z" fill="white"/>
<path d="M181.697 16.8668L179.727 16.3348L187.386 4.89052L189.531 5.46951L190.725 19.3043L188.755 18.7724L187.922 7.48965L187.826 7.4637L181.697 16.8668ZM183.294 12.0063L189.684 13.7319L189.274 15.3365L182.883 13.6109L183.294 12.0063Z" fill="white"/>
<path d="M200.972 10.7302L203.12 11.5499C204.028 11.8964 204.759 12.4091 205.314 13.0879C205.873 13.7642 206.219 14.5475 206.352 15.4378C206.491 16.3256 206.384 17.2561 206.033 18.2292C205.684 19.1943 205.176 19.9647 204.508 20.5405C203.845 21.1178 203.086 21.4771 202.231 21.6183C201.381 21.7571 200.502 21.6532 199.594 21.3067L197.446 20.487C196.538 20.1405 195.803 19.6311 195.242 18.9588C194.683 18.2825 194.333 17.5044 194.191 16.6246C194.054 15.7462 194.16 14.8225 194.51 13.8534C194.864 12.8763 195.375 12.0959 196.045 11.5121C196.716 10.9283 197.476 10.5651 198.327 10.4223C199.182 10.2811 200.064 10.3837 200.972 10.7302ZM200.395 12.3275C199.774 12.0905 199.196 12.022 198.66 12.1218C198.127 12.2177 197.654 12.4685 197.243 12.8742C196.831 13.2798 196.501 13.8276 196.251 14.5176C196.008 15.1915 195.914 15.8162 195.971 16.3916C196.034 16.9645 196.237 17.4662 196.58 17.8968C196.925 18.3233 197.406 18.6544 198.023 18.8898L200.177 19.7117C200.794 19.9471 201.367 20.0182 201.895 19.9248C202.429 19.8289 202.898 19.5814 203.303 19.1823C203.713 18.7806 204.041 18.2407 204.286 17.5628C204.532 16.8808 204.628 16.2502 204.572 15.6708C204.522 15.0889 204.325 14.5827 203.982 14.1521C203.643 13.719 203.166 13.3848 202.549 13.1493L200.395 12.3275ZM203.522 9.85168L198.835 22.8209L197.071 22.1478L201.758 9.17863L203.522 9.85168Z" fill="white"/>
<path d="M212.047 13.6169L213.754 14.4733L209.658 23.0983L209.764 23.1515L219.676 17.4426L221.272 18.243L215.694 29.9878L213.97 29.123L218.06 20.5094L217.954 20.4563L208.059 26.1593L206.469 25.3616L212.047 13.6169Z" fill="white"/>
<path d="M224.514 20.0961L226.134 21.1054L223.957 24.7937C223.654 25.3065 223.501 25.7662 223.499 26.1725C223.498 26.5753 223.626 26.941 223.882 27.2699C224.142 27.6009 224.509 27.9143 224.984 28.2099C225.235 28.3665 225.495 28.5163 225.764 28.6591C226.039 28.8006 226.317 28.9336 226.596 29.0583C226.878 29.1793 227.155 29.2894 227.426 29.3885C227.702 29.4861 227.964 29.5673 228.212 29.632L227.365 31.067C227.118 31.0081 226.864 30.9343 226.602 30.8454C226.345 30.7552 226.081 30.6528 225.81 30.5384C225.541 30.4203 225.265 30.2884 224.983 30.1426C224.701 29.9967 224.417 29.8344 224.13 29.6557C223.337 29.1616 222.721 28.6183 222.281 28.0259C221.847 27.4321 221.625 26.7835 221.614 26.0801C221.607 25.3789 221.848 24.6137 222.337 23.7844L224.514 20.0961ZM231.088 24.1929L232.713 25.2055L226.117 36.3795L224.492 35.3669L231.088 24.1929Z" fill="white"/>
<path d="M228.399 37.9925L235.885 27.4268L242.331 32.2489L241.359 33.6212L236.464 29.9596L234.183 33.1788L238.742 36.5888L237.774 37.956L233.215 34.5459L230.923 37.7807L235.879 41.4874L234.906 42.8597L228.399 37.9925Z" fill="white"/>
<path d="M250.41 44.7978L248.945 43.4945C249.16 43.1228 249.293 42.7465 249.346 42.3656C249.399 41.9848 249.386 41.6102 249.307 41.2421C249.228 40.8739 249.088 40.5239 248.886 40.192C248.687 39.8629 248.434 39.5618 248.127 39.2889C247.573 38.796 246.956 38.4977 246.277 38.394C245.601 38.2931 244.903 38.4065 244.183 38.734C243.467 39.0644 242.772 39.6283 242.1 40.4259C241.422 41.2298 240.976 42.0198 240.76 42.7957C240.547 43.5744 240.541 44.3002 240.741 44.9731C240.94 45.646 241.314 46.2261 241.862 46.7135C242.165 46.9836 242.488 47.198 242.831 47.3567C243.18 47.5149 243.536 47.6093 243.899 47.6398C244.262 47.6703 244.622 47.6332 244.978 47.5284C245.341 47.4233 245.685 47.2396 246.01 46.9773L247.47 48.2855C246.983 48.7015 246.454 49.0134 245.885 49.2213C245.321 49.4288 244.739 49.5245 244.139 49.5084C243.545 49.492 242.957 49.365 242.374 49.1276C241.791 48.8901 241.235 48.5361 240.706 48.0654C239.873 47.3246 239.302 46.462 238.993 45.4776C238.686 44.4899 238.665 43.4495 238.929 42.3563C239.196 41.266 239.773 40.195 240.659 39.1434C241.548 38.0886 242.499 37.3504 243.511 36.9289C244.526 36.5041 245.53 36.3788 246.523 36.5528C247.518 36.7236 248.43 37.1781 249.259 37.9161C249.77 38.37 250.182 38.8689 250.495 39.4127C250.815 39.9561 251.03 40.5298 251.14 41.134C251.252 41.7349 251.249 42.3458 251.131 42.9667C251.016 43.5844 250.775 44.1948 250.41 44.7978Z" fill="white"/>
<path d="M251.65 58.6729L252.78 51.445L251.839 50.4448L247.74 54.5159L246.406 53.0981L255.551 44.0157L256.885 45.4335L253.023 49.2696L253.458 49.733L260.662 49.4482L262.289 51.178L254.659 51.4869L253.277 60.4027L251.65 58.6729Z" fill="white"/>
<path d="M255.042 62.5435L253.761 60.9158L266.529 56.357L267.923 58.1286L260.91 70.002L259.629 68.3743L265.463 58.7774L265.4 58.698L255.042 62.5435ZM259.13 59.599L263.284 64.879L262.028 65.922L257.874 60.642L259.13 59.599Z" fill="white"/>
<path d="M267.181 79.4438L266.104 77.8042L275.282 71.4391L273.934 69.3869C273.582 68.8509 273.217 68.4702 272.839 68.2447C272.465 68.0168 272.081 67.9264 271.687 67.9735C271.293 68.0207 270.898 68.1823 270.499 68.4584C270.105 68.7321 269.818 69.0441 269.638 69.3944C269.459 69.7447 269.404 70.1367 269.474 70.5705C269.544 71.0043 269.754 71.4874 270.104 72.0199L271.928 74.7967L270.559 75.7463L268.634 72.8161C268.085 71.9804 267.763 71.19 267.668 70.4448C267.576 69.7032 267.682 69.0241 267.986 68.4076C268.296 67.7923 268.774 67.2609 269.419 66.8134C270.068 66.3636 270.729 66.1049 271.404 66.0372C272.082 65.9672 272.744 66.1114 273.389 66.4698C274.036 66.8318 274.634 67.4306 275.183 68.2663L277.723 72.1327L267.181 79.4438ZM268.425 70.7979L269.613 72.6068L263.13 73.2767L261.911 71.4202L268.425 70.7979Z" fill="white"/>
<path d="M283.111 91.0227L282.226 89.2517C282.56 88.9892 282.821 88.6914 283.008 88.3583C283.195 88.0251 283.319 87.6727 283.38 87.301C283.441 86.9293 283.438 86.5508 283.371 86.1653C283.306 85.7836 283.18 85.4073 282.995 85.0364C282.66 84.3666 282.197 83.8533 281.604 83.4965C281.013 83.1435 280.325 82.9808 279.538 83.0086C278.753 83.0402 277.904 83.2969 276.991 83.7789C276.07 84.2648 275.369 84.8263 274.887 85.4633C274.406 86.1041 274.137 86.7749 274.077 87.4758C274.018 88.1766 274.154 88.8581 274.485 89.5203C274.668 89.8874 274.89 90.2103 275.151 90.489C275.416 90.7695 275.712 90.9936 276.038 91.1612C276.364 91.3288 276.711 91.4325 277.08 91.4721C277.455 91.5136 277.84 91.4751 278.237 91.3565L279.117 93.1304C278.513 93.3293 277.91 93.4159 277.306 93.3903C276.708 93.3665 276.133 93.2321 275.582 92.9871C275.037 92.7439 274.537 92.4003 274.083 91.9563C273.628 91.5124 273.241 90.9706 272.921 90.3311C272.418 89.3245 272.202 88.3052 272.273 87.2732C272.347 86.2393 272.705 85.2659 273.347 84.3531C273.991 83.4441 274.916 82.6719 276.12 82.0363C277.328 81.3988 278.478 81.0788 279.57 81.0762C280.667 81.0716 281.643 81.3404 282.501 81.8826C283.362 82.4229 284.043 83.1945 284.544 84.1973C284.853 84.8141 285.054 85.435 285.147 86.0599C285.246 86.6867 285.237 87.3013 285.119 87.9038C285.005 88.5044 284.781 89.0701 284.446 89.6009C284.114 90.1297 283.669 90.6036 283.111 91.0227Z" fill="white"/>
<path d="M286.3 92.0661L287.83 91.4253L291.546 100.791L290.016 101.432L288.518 97.656L278.27 101.949L277.548 100.129L287.796 95.836L286.3 92.0661Z" fill="white"/>
<path d="M280.652 108.891L282.264 108.373L282.492 109.122C282.587 109.434 282.717 109.676 282.882 109.845C283.048 110.019 283.237 110.143 283.451 110.217C283.669 110.294 283.897 110.344 284.133 110.365L284.62 110.403L292.393 103.087L293.001 105.085L286.981 110.613L294.885 111.265L295.486 113.238L284.139 112.156C283.68 112.103 283.243 112.012 282.826 111.883C282.41 111.758 282.036 111.533 281.703 111.208C281.373 110.881 281.109 110.393 280.911 109.744L280.652 108.891Z" fill="white"/>
<path d="M280.72 118.925L285.316 117.908L285.492 118.75C285.787 118.985 286.177 119.179 286.663 119.333C287.148 119.486 287.777 119.569 288.551 119.581C289.324 119.592 290.294 119.504 291.462 119.315L296.776 118.451L298.428 126.33L287.585 128.731L287.889 130.178L283.311 131.191L282.924 129.345L285.911 128.684L284.112 120.106L281.107 120.772L280.72 118.925ZM285.968 121.021L287.198 126.884L296.426 124.841L295.527 120.556L291.849 121.161C290.959 121.302 290.151 121.387 289.425 121.417C288.699 121.452 288.047 121.433 287.469 121.361C286.896 121.292 286.395 121.178 285.968 121.021Z" fill="white"/>
<path d="M299.27 131.216L299.495 133.155L290.221 134.292L290.235 134.412L300.275 139.878L300.486 141.69L287.856 143.238L287.629 141.28L296.891 140.145L296.877 140.025L286.851 134.57L286.641 132.764L299.27 131.216Z" fill="white"/>
<path d="M288.287 155L288.229 153.023L299.297 152.679L299.224 150.204C299.205 149.558 299.094 149.036 298.892 148.637C298.694 148.239 298.416 147.952 298.059 147.776C297.702 147.6 297.283 147.519 296.803 147.534C296.327 147.549 295.922 147.655 295.588 147.853C295.255 148.05 295.005 148.352 294.838 148.757C294.672 149.162 294.599 149.686 294.618 150.328L294.716 153.677L293.065 153.728L292.961 150.194C292.931 149.187 293.07 148.342 293.377 147.66C293.684 146.982 294.127 146.466 294.705 146.112C295.287 145.762 295.967 145.575 296.745 145.55C297.527 145.526 298.221 145.671 298.826 145.984C299.436 146.297 299.921 146.782 300.28 147.439C300.639 148.1 300.833 148.935 300.863 149.942L301 154.605L288.287 155ZM293.833 148.373L293.897 150.555L288.068 147.563L288.002 145.324L293.833 148.373Z" fill="white"/>
</svg>
