<svg width="146" height="169" viewBox="0 0 146 169" fill="none" xmlns="http://www.w3.org/2000/svg">
<path d="M1 1C8.31335 1 16.8211 2.73843 23.5278 5.5C27.9095 7.30423 32.7067 9.00334 37.2778 10.25C40.8397 11.2214 44.1658 12.3924 47.5 14C50.9717 15.6739 55.0719 16.854 57.8889 19.6111C63.085 24.6966 67.5876 32.8102 69.75 39.7778C72.0097 47.059 72.8916 54.5774 73.6111 62.2222C74.2531 69.0428 73.8948 74.7278 69.2222 80.25C64.5261 85.8 54.0684 87.0978 47.7778 83.7778C44.1502 81.8632 43.8718 79.2748 42.3889 76C41.0074 72.9492 40 69.6223 40 66.25C40 63.5938 39.7239 60.7353 40.1111 58.1111C40.5762 54.9586 42.4451 52.5048 43.75 49.75C45.2039 46.6806 49.3325 45.4735 52.25 44.25C56.0418 42.6599 60.4967 41.6016 64.6111 41.5C69.6121 41.3765 75.2631 40.0674 80.2222 41.2222C84.9116 42.3143 92.1386 44.105 95.7222 47.5C98.6968 50.3181 101.1 52.3887 103.5 55.7222C105.312 58.2386 106.624 60.9886 108.389 63.5C111.241 67.5588 112.977 72.9453 113.889 77.7778C114.272 79.8072 115.5 81.9469 115.5 84C115.5 87.1294 117.089 90.6336 117.528 93.7778C118.627 101.653 120.974 109.802 123 117.5C123.722 120.244 124.521 122.941 125.5 125.611C127.369 130.707 131.197 135.571 131.972 141C132.629 145.596 136.543 150.335 138.389 154.667C140.392 159.365 141.824 163.486 144.5 167.5" stroke="white" stroke-width="2" stroke-linecap="round"/>
</svg>
