<svg width="610" height="1153" viewBox="0 0 610 1153" fill="none" xmlns="http://www.w3.org/2000/svg">
<path d="M1.42857 1.28577C67.748 11.501 135.143 19.6688 200.476 35.4128C272.855 52.8545 344.165 79.3529 411.905 110.016C474.939 138.549 544.012 175.298 585.873 232.397C608.37 263.083 609.326 297.356 608.413 333.905C607.246 380.562 585.297 424.872 556.746 461.127C527.274 498.552 490.108 521.134 447.143 540.175C382.055 569.019 314.273 593.925 251.27 627.159C226.409 640.273 202.027 654.711 179.524 671.603C160.132 686.16 137.464 703.149 128.333 726.524C123.222 739.61 124.286 754.044 124.286 767.794C124.286 780.711 123.396 794.113 125.397 806.921C129.302 831.912 146.991 857.74 167.302 872.397C198.988 895.264 237.064 913.158 273.81 926.048C321.458 942.762 371.389 952.556 419.524 967.794C437.773 973.571 472.895 980.054 475.397 1003.83C476.659 1015.82 476.735 1027.37 467.54 1036.21C458.271 1045.11 445.721 1051.47 434.603 1057.64C411.285 1070.56 386.995 1081.64 362.381 1091.84C328.823 1105.75 295.08 1121.11 259.206 1128.11C237.388 1132.37 215.881 1136.36 194.286 1141.84C183.661 1144.54 171.326 1146.34 161.429 1151.29" stroke="black" stroke-width="2" stroke-linecap="round"/>
</svg>
