<svg width="1042" height="383" viewBox="0 0 1042 383" fill="none" xmlns="http://www.w3.org/2000/svg">
<path d="M1 209.416C24.2321 185.849 46.5762 163.519 72.9497 143.483C105.234 118.956 136.907 94.5744 170.362 71.5694C185.401 61.2281 200.96 51.9534 216.538 42.436C231.395 33.3582 245.796 23.4145 261.857 16.446C281.86 7.7669 305.417 0.42139 327.577 1.03598C355.325 1.80557 348.635 55.0447 338.556 69.346C302.562 120.42 248.116 167.038 238.73 231.726C236.11 249.785 221.145 309.47 249.398 317.056C265.986 321.511 288.724 319.288 305.462 317.823C346.187 314.259 383.919 293.876 416.424 270.75C456.365 242.332 490.172 206.648 524.893 172.463C543.469 154.173 561.783 135.568 580.802 117.723C597.502 102.054 615.204 88.1294 637.957 82.3027C650.191 79.1699 661.949 79.545 674.088 82.7627C685.106 85.6835 701.666 88.9294 709.829 97.6361C713.378 101.422 713.174 107.888 713.022 112.663C712.494 129.148 703.677 143.749 696.202 158.049C683.173 182.976 668.492 205.49 652.752 228.736C636.44 252.827 621.163 280.734 614.519 309.083C612.465 317.848 606.514 337.281 611.56 346.113C618.816 358.814 639.729 358.523 652.285 358.456C679.117 358.313 698.308 343.747 718.472 327.636C732.965 316.057 746.241 303.09 760.131 290.836C782.01 271.535 804.97 253.448 827.02 234.333C860.865 204.992 895.151 169.006 938.838 154.063C958.485 147.342 980.003 148.817 993.034 166.636C1001.13 177.71 1000.96 196.444 997.083 209.109C987.487 240.458 969.561 268.992 958.305 299.73C949.361 324.154 938.979 348.871 938.682 375.17C938.626 380.097 938.302 381.575 943.821 381.84C950.081 382.14 956.464 382.194 962.509 380.383C980.968 374.852 995.767 361.79 1014.99 358.15C1024.84 356.286 1032.97 351.308 1041 346.036" stroke="black" stroke-width="2" stroke-linecap="round"/>
</svg>
