<svg width="1052" height="777" viewBox="0 0 1052 777" fill="none" xmlns="http://www.w3.org/2000/svg">
<path d="M865.596 66.122C833.637 50.8808 786.373 34.9591 763.144 7.33795C746.606 -12.3294 815.59 19.3448 837.766 33.0851C871.041 53.704 933.967 101.948 930.297 144.911C925.718 198.574 809.547 181.474 774.128 194.104C718.39 213.982 765.98 300.63 776.154 335.127C791.332 386.59 804.915 435.619 786.516 487.815C773.968 523.417 745.609 558.117 743.659 596.573C741.263 643.841 789.593 678.154 827.005 699.709C869.385 724.126 916.662 740.972 963.148 756.71C978.508 761.913 1057.66 798.783 1050.55 754.502C1042.16 702.223 990.062 654.761 952.07 620.697C879.961 556.039 788.448 525.619 692.207 508.25C617.756 494.814 548.639 505.083 475.461 518.726C415.985 529.815 363.691 531.447 306.887 507.782C239.734 479.804 179.671 435.991 117.249 399.881C78.0919 377.229 39.0988 354.732 1 330.536" stroke="white" stroke-width="1.15362" stroke-linecap="round"/>
</svg>
